<svg xmlns="http://www.w3.org/2000/svg" width="256.761" height="24.115" viewBox="0 0 256.761 24.115">
  <g id="Group_355" data-name="Group 355" transform="translate(-736 -6663.34)">
    <rect id="Rectangle_475" data-name="Rectangle 475" width="2.758" height="3.918" transform="translate(741.782 6674.301)" fill="#b76646"/>
    <rect id="Rectangle_476" data-name="Rectangle 476" width="3.918" height="2.738" transform="translate(745.069 6674.896)" fill="#b76646"/>
    <rect id="Rectangle_477" data-name="Rectangle 477" width="2.758" height="3.918" transform="translate(749.522 6674.301)" fill="#b76646"/>
    <path id="Path_267" data-name="Path 267" d="M55.673,71.215a1.425,1.425,0,0,0-1.379-1.435A1.44,1.44,0,0,0,52.9,71.225v7.694h2.768Z" transform="translate(692.739 6595.433)" fill="#b76646"/>
    <path id="Path_268" data-name="Path 268" d="M55.673,102.949a1.425,1.425,0,0,1-1.379,1.44,1.44,1.44,0,0,1-1.394-1.45V95.25h2.768Z" transform="translate(692.739 6582.924)" fill="#b76646"/>
    <path id="Path_269" data-name="Path 269" d="M48.081,71.178a1.389,1.389,0,1,0-2.773,0V75h2.773Z" transform="translate(696.469 6595.469)" fill="#b76646"/>
    <path id="Path_270" data-name="Path 270" d="M63.318,71.259a1.389,1.389,0,1,0-2.778,0v3.822h2.778Z" transform="translate(688.987 6595.388)" fill="#b76646"/>
    <path id="Path_271" data-name="Path 271" d="M48.081,106.656a1.389,1.389,0,1,1-2.773,0V102.85h2.773Z" transform="translate(696.469 6579.191)" fill="#b76646"/>
    <path id="Path_272" data-name="Path 272" d="M63.318,106.656a1.389,1.389,0,1,1-2.778,0V102.85h2.778Z" transform="translate(688.987 6579.191)" fill="#b76646"/>
    <path id="Path_273" data-name="Path 273" d="M35.475,83.93h7.633V81.157H35.475a1.389,1.389,0,1,0-.031,2.773h.046" transform="translate(702.027 6589.847)" fill="#b76646"/>
    <path id="Path_274" data-name="Path 274" d="M35.475,99.15h7.633V96.377H35.475a1.389,1.389,0,1,0-.031,2.773h.046" transform="translate(702.027 6582.372)" fill="#b76646"/>
    <path id="Path_275" data-name="Path 275" d="M66.983,99.15H59.35V96.377h7.633a1.389,1.389,0,1,1,.036,2.773h-.046" transform="translate(689.571 6582.372)" fill="#b76646"/>
    <path id="Path_276" data-name="Path 276" d="M35.46,91.54h3.75V88.767H35.445a1.389,1.389,0,1,0-.031,2.773h.046" transform="translate(702.042 6586.109)" fill="#b76646"/>
    <path id="Path_277" data-name="Path 277" d="M70.74,91.54H67V88.767h3.761A1.389,1.389,0,1,1,70.8,91.54H70.75" transform="translate(685.814 6586.109)" fill="#b76646"/>
    <path id="Path_278" data-name="Path 278" d="M66.983,83.93H59.35V81.157h7.633a1.389,1.389,0,1,1,.036,2.773h-.046" transform="translate(689.571 6589.847)" fill="#b76646"/>
    <path id="Path_279" data-name="Path 279" d="M305.179,88.724l-.88-.1c-1.17-.127-1.237-.509-1.237-2.834V80.348c0-2.28-1.109-4.208-4.208-4.208a7.4,7.4,0,0,0-4.4,1.7c-.1-.066-.127-.331-.127-.621v-6.85c0-1.435.066-3.053.1-4.04a.356.356,0,0,0-.326-.2,22.76,22.76,0,0,1-3.521,1.369.509.509,0,0,0,0,.656l.326.193c.977.585,1.018.784,1.018,2.7V85.808a13.268,13.268,0,0,1-.071,1.842c-.361.962-1.323.88-2.035.87-2.921-.041-3.282-1.73-3.282-3.618V78.786c0-.687.031-.784.585-.784h2.463a1.018,1.018,0,0,0-.036-1.369h-2.4c-.55,0-.585-.036-.585-.621v-2.7c-.127-.229-.656-.122-.768,0-.4.753-.682,2.249-1.338,2.977a5.328,5.328,0,0,1-1.99.967.611.611,0,0,0,.071.733h.911c.656,0,.687.066.687.947v7.481c.025,1.181,1.216,3.007,4.071,3.1h4.906c1.14,0,2.086.031,3.053.1.229-.1.3-.748.066-.88l-.687-.1c-1.17-.163-1.237-.509-1.237-2.834v-5.5c0-1.145.1-1.308.687-1.8a3.888,3.888,0,0,1,2.544-.88c2.086,0,3.1,1.4,3.1,3.486v4.666c0,2.346-.036,2.636-1.242,2.834l-.651.1a.656.656,0,0,0,.066.88c.88-.066,1.857-.1,3.053-.1s2.086.031,3.262.1a.646.646,0,0,0,.056-.875Z" transform="translate(580.04 6597.225)" fill="#fff"/>
    <path id="Path_280" data-name="Path 280" d="M262.769,89l-.779-.1c-1.16-.158-1.226-.509-1.226-2.809V70.828c0-1.42.066-3.053.1-4a.351.351,0,0,0-.321-.2,22.675,22.675,0,0,1-3.486,1.359.509.509,0,0,0,0,.646l.321.193c.972.58,1.018.773,1.018,2.677v14.59c0,2.326-.509,2.661-1.226,2.809a4.692,4.692,0,0,1-.621.081,7.282,7.282,0,0,1-1.567-.076c-1.929-.28-2.122-1.384-2.107-2.972l.2-5.6c.092-2.422-1.018-3.776-3.359-3.776s-6,2.29-6,3.969a.412.412,0,0,0,.453.453A3.46,3.46,0,0,0,246,80.37c.254-.193.285-.58.316-1.094.071-1.018,1.165-1.455,2.071-1.455,2,0,2.387,1.613,2.356,2.809l-.025,1.2a.885.885,0,0,1-.565.891,35.479,35.479,0,0,0-3.806,1.354c-1.995.87-2.707,1.852-2.707,3.114a3.018,3.018,0,0,0,1.017,2.259,3.343,3.343,0,0,0,2.26.743,4.809,4.809,0,0,0,2.326-.809,4.972,4.972,0,0,1,1.257-.646c.193,0,.372.249.6.438a2.692,2.692,0,0,0,2.01.651h3.359l3.14-.046c1.135,0,3.13.1,3.13.1A.621.621,0,0,0,262.769,89ZM250.556,86.39a1.961,1.961,0,0,1-.417,1.527,3.689,3.689,0,0,1-1.974.8,1.929,1.929,0,0,1-2.035-1.934c.051-1.664.926-1.969,2.809-2.682a4.788,4.788,0,0,1,1.369-.331c.193,0,.305.229.305.585Z" transform="translate(599.062 6596.979)" fill="#fff"/>
    <path id="Path_281" data-name="Path 281" d="M100.343,77.909c0-2.035-.066-5.766-.616-6.743a2.017,2.017,0,0,0-1.628-.682l-.819-.066a.59.59,0,0,1,.066-.779c1.242.061,2.443.1,3.715.1,1.369,0,2.249-.036,3.42-.1a.56.56,0,0,1,.066.779l-.784.066a1.914,1.914,0,0,0-1.628.779c-.473,1.1-.473,4.824-.473,6.646v3.679c0,2.834-.458,5.832-2.28,7.786a8.6,8.6,0,0,1-6.224,2.376,9.327,9.327,0,0,1-6.107-1.791c-1.725-1.435-2.544-3.812-2.544-7.684V74.586c0-3.384-.066-3.939-1.954-4.1l-.814-.066c-.193-.127-.127-.682.066-.779,1.628.061,2.738.1,4.035.1s2.412-.036,4.01-.1c.193.1.26.651.066.779l-.784.066c-1.888.163-1.954.718-1.954,4.1v7.033c0,5.247,1.628,8.7,6.615,8.7,4.722,0,6.514-3.715,6.514-8.651Z" transform="translate(678.633 6595.501)" fill="#fff"/>
    <path id="Path_282" data-name="Path 282" d="M138.81,85.433c0,3.42.066,3.908,1.954,4.071l1.043.1c.193.132.132.718-.066.814-1.857-.066-2.962-.1-4.264-.1s-2.443.031-4.529.1a.57.57,0,0,1,0-.814l1.17-.1c1.857-.163,2.036-.651,2.036-4.071V70.874c0-1.018,0-1.018-.977-1.018h-1.791c-1.4,0-3.191.066-4,.814a5.913,5.913,0,0,0-1.466,2.249.631.631,0,0,1-.845-.229,34.851,34.851,0,0,0,1.237-4.85.819.819,0,0,1,.621,0c.193,1.018,1.267,1.018,2.763,1.018h13.155c1.761,0,2.036-.066,2.544-.911.163-.066.509-.036.585.1A19.846,19.846,0,0,0,147.466,73a.611.611,0,0,1-.85.061c-.1-.814-.326-2.036-.814-2.376a6.517,6.517,0,0,0-3.776-.814h-2.27c-.977,0-.947.031-.947,1.109Z" transform="translate(656.312 6596.415)" fill="#fff"/>
    <path id="Path_283" data-name="Path 283" d="M177.265,80.728c-1.562,0-1.628.061-1.628,1.018v4.58c0,3.42.163,3.873,1.985,4.071l.947.1c.193.132.132.718-.066.814-1.761-.066-2.865-.1-4.137-.1-1.4,0-2.5.066-3.776.1a.631.631,0,0,1-.066-.814l.555-.1c1.822-.326,1.888-.651,1.888-4.071v-11.7c0-3.415-.229-3.969-1.918-4.071l-.85-.066c-.193-.132-.132-.718.066-.814,1.6.031,2.7.1,4.1.1,1.272,0,2.376-.036,3.781-.1.193.1.26.682.066.814l-.621.066c-1.888.193-1.954.682-1.954,4.071v3.75c0,1.018.066,1.018,1.628,1.018h9.312c1.562,0,1.628-.036,1.628-1.018v-3.74c0-3.415-.066-3.9-1.985-4.071l-.621-.066c-.193-.132-.127-.718.066-.814,1.5.061,2.605.1,3.944.1s2.376-.036,3.842-.1c.193.1.26.682.066.814l-.687.066c-1.888.193-1.954.682-1.954,4.071v11.7c0,3.42.066,3.842,1.954,4.071l.784.1c.193.132.127.718-.066.814-1.562-.066-2.672-.1-3.939-.1s-2.509.031-3.944.1a.636.636,0,0,1-.066-.814l.621-.1c1.985-.326,1.985-.651,1.985-4.071v-4.58c0-.977-.066-1.018-1.628-1.018Z" transform="translate(635.19 6595.486)" fill="#fff"/>
    <path id="Path_284" data-name="Path 284" d="M220.258,90.926c-.845,0-.88.066-.88.885,0,3.287,1.924,6.107,5.409,6.107a3.514,3.514,0,0,0,3-1.6.433.433,0,0,1,.585.392,5.682,5.682,0,0,1-5.089,3.028,5.832,5.832,0,0,1-4.722-2.147,6.915,6.915,0,0,1-1.369-4.234C217.164,89.333,219.8,86,223.708,86c2.8,0,4.621,1.924,4.621,3.878a2.122,2.122,0,0,1-.127.85c-.1.193-.555.224-1.924.224Zm2.036-.977c2.412,0,3.124-.127,3.389-.326.1-.061.193-.193.193-.616,0-.911-.616-2.036-2.509-2.036s-3.562,1.756-3.613,2.829c0,.066,0,.163.229.163Z" transform="translate(612.053 6587.466)" fill="#fff"/>
    <path id="Path_285" data-name="Path 285" d="M315.05,68.171a2.071,2.071,0,1,1,.607,1.475A2.076,2.076,0,0,1,315.05,68.171Zm3.786,0a1.71,1.71,0,1,0-1.7,1.715A1.71,1.71,0,0,0,318.836,68.171Zm-2.147.137v1.053h-.382V66.924h.789c.448,0,.911.122.911.672a.56.56,0,0,1-.509.57h0c.336.066.372.214.412.478a3.291,3.291,0,0,0,.142.707h-.509a4.072,4.072,0,0,1-.081-.433c-.031-.214-.031-.407-.143-.509a.493.493,0,0,0-.351-.1Zm.4-.382c.361,0,.443-.158.443-.346s-.081-.275-.387-.275h-.458v.621Z" transform="translate(563.991 6597.24)" fill="#fff"/>
    <path id="Path_286" data-name="Path 286" d="M346.335,80.578c-1.567,0-1.628.066-1.628,1.018v4.58c0,3.42.163,3.873,1.985,4.071l.947.1c.193.127.127.718-.066.814-1.761-.066-2.865-.1-4.137-.1-1.4,0-2.509.061-3.776.1a.631.631,0,0,1-.066-.814l.555-.1c1.822-.326,1.888-.651,1.888-4.071v-11.7c0-3.42-.229-3.974-1.924-4.107l-.845-.061c-.193-.132-.132-.718.066-.814,1.593.031,2.7.1,4.1.1,1.272,0,2.376-.036,3.776-.1.2.1.265.682.066.814l-.616.061c-1.893.2-1.954.687-1.954,4.107v3.745c0,1.018.061,1.018,1.628,1.018h9.312c1.562,0,1.628-.031,1.628-1.018V74.492c0-3.42-.066-3.908-1.985-4.107l-.621-.061c-.193-.132-.132-.718.066-.814,1.5.061,2.605.1,3.939.1s2.376-.036,3.842-.1c.2.1.26.682.066.814l-.682.061c-1.893.2-1.954.687-1.954,4.107V86.2c0,3.42.061,3.842,1.954,4.071l.779.1c.2.127.132.718-.066.814-1.562-.066-2.667-.1-3.939-.1s-2.509.031-3.939.1a.631.631,0,0,1-.066-.814l.621-.1c1.985-.326,1.985-.651,1.985-4.071v-4.58c0-.977-.066-1.018-1.628-1.018Z" transform="translate(552.156 6595.575)" fill="#fff"/>
    <path id="Path_287" data-name="Path 287" d="M398.5,92.562a6.651,6.651,0,0,1-6.87,7,6.437,6.437,0,0,1-6.676-6.707,6.844,6.844,0,0,1,6.936-7.038,6.509,6.509,0,0,1,6.61,6.743Zm-7-5.766c-2.147,0-3.745,2.036-3.745,5.638,0,2.962,1.338,6.152,4.2,6.152s3.745-3,3.745-5.5C395.7,90.318,394.6,86.8,391.5,86.8Z" transform="translate(529.659 6587.556)" fill="#fff"/>
    <path id="Path_288" data-name="Path 288" d="M468.858,85.885c-.555,0-.585.1-.585.779V92.77c0,1.888.229,3.613,2.376,3.613a2.4,2.4,0,0,0,.88-.163c.29-.1.718-.453.814-.453.26,0,.392.356.326.555a4.519,4.519,0,0,1-3.42,1.5c-2.8,0-3.389-1.562-3.389-3.516V86.826c0-.875-.031-.941-.682-.941h-.911a.539.539,0,0,1-.1-.687,6.376,6.376,0,0,0,2.081-1.018,8.026,8.026,0,0,0,1.354-1.913c.163-.061.555-.061.682.168V83.9c0,.585.036.616.59.616h3.613a1.018,1.018,0,0,1,.031,1.369Z" transform="translate(490.795 6589.317)" fill="#fff"/>
    <path id="Path_289" data-name="Path 289" d="M494.923,92.562a6.655,6.655,0,0,1-6.875,7,6.433,6.433,0,0,1-6.671-6.707,6.839,6.839,0,0,1,6.931-7.038,6.509,6.509,0,0,1,6.615,6.743ZM487.916,86.8c-2.153,0-3.745,2.036-3.745,5.638,0,2.962,1.333,6.152,4.2,6.152s3.745-3,3.745-5.5C492.115,90.318,491.01,86.8,487.916,86.8Z" transform="translate(482.306 6587.556)" fill="#fff"/>
    <path id="Path_290" data-name="Path 290" d="M510.517,89.312c0-1.272,0-1.435-.88-2.036l-.3-.193a.453.453,0,0,1,.036-.59,17.7,17.7,0,0,0,3.257-1.593.382.382,0,0,1,.356.229c-.066.748-.066,1.237-.066,1.527a.346.346,0,0,0,.361.361,8.947,8.947,0,0,1,4.58-1.664c2.7,0,3.812,1.857,3.812,4.04v5.6c0,2.346.061,2.667,1.237,2.834l.713.1a.57.57,0,0,1-.061.814c-.977-.066-1.924-.1-3.053-.1s-2.147.036-3.028.1a.57.57,0,0,1-.066-.814l.621-.1c1.206-.2,1.237-.509,1.237-2.834V90.157c0-1.857-.845-3.221-3.053-3.221a3.562,3.562,0,0,0-2.768,1.14,2.755,2.755,0,0,0-.509,1.954v4.982c0,2.346.066,2.636,1.242,2.834l.585.1a.57.57,0,0,1-.066.814c-.88-.066-1.822-.1-2.962-.1s-2.153.036-3.053.1a.57.57,0,0,1-.066-.814l.687-.1c1.2-.168,1.237-.509,1.237-2.834Z" transform="translate(468.992 6588.006)" fill="#fff"/>
    <path id="Path_291" data-name="Path 291" d="M417.061,94.323c0,2.244.555,3.745,3.053,3.745a4.285,4.285,0,0,0,2.636-.977A2.273,2.273,0,0,0,423.4,95.2V89.86c0-2.117-.229-2.183-1.206-2.575l-.422-.163a.438.438,0,0,1,.031-.712,12.94,12.94,0,0,0,3.811-.59c.163.036.26.1.3.229-.066.621-.1,1.628-.1,2.834v5.47c0,2.575.1,3.562,1.018,3.562a6.269,6.269,0,0,0,1.272-.163c.193.163.224.814-.036.941A16.984,16.984,0,0,0,423.8,99.9a.453.453,0,0,1-.392-.229V98.328c0-.3-.1-.458-.3-.458a8.487,8.487,0,0,1-4.493,1.695c-2.865,0-3.939-1.435-3.939-4.071v-5.44c0-2.036,0-2.341-.977-2.768l-.392-.163a.478.478,0,0,1,.066-.712,11.5,11.5,0,0,0,3.486-.59c.193.036.29.1.326.229a23.934,23.934,0,0,0-.1,2.834Z" transform="translate(515.794 6587.554)" fill="#fff"/>
    <path id="Path_292" data-name="Path 292" d="M452.416,86.43a7.633,7.633,0,0,1,.509,2.636.565.565,0,0,1-.784.1,3.171,3.171,0,0,0-2.865-2.376,1.924,1.924,0,0,0-2.081,1.985c0,1.338,1.364,2.036,2.5,2.707,1.73.977,3.323,2.081,3.323,4.4,0,2.473-2.28,3.71-4.687,3.71a5.429,5.429,0,0,1-3.486-.977,9.67,9.67,0,0,1-.392-3.287.55.55,0,0,1,.748-.036c.555,1.791,1.6,3.354,3.455,3.354a2,2,0,0,0,2.178-2.081c0-1.5-1.3-2.31-2.5-3-1.888-1.074-3.226-2.214-3.226-4,0-2.376,1.954-3.715,4.427-3.715A5.578,5.578,0,0,1,452.416,86.43Z" transform="translate(500.443 6587.545)" fill="#fff"/>
  </g>
</svg>
